<svg xmlns="http://www.w3.org/2000/svg" viewBox="0 0 1000 330.4" style="enable-background:new 0 0 1000 330.4" xml:space="preserve"><path d="m933.9 104.6-55.2-12.8-9.9-3.9-253.5 2v122.3l318.5 1V104.6z" style="fill:#4B4B4B"/><path d="M830.4 201.2c3.2-8.5 2.1-18.1-3-25.6-5.2-6.2-12.6-10.1-20.7-10.8l-171.6-2c-1 0-2-1-3-1-.8-.6-1-1.8-.4-2.6.1-.1.2-.3.4-.4 1-2 2-3 3.9-3l172.6-2c22.3-2.5 41.5-16.8 50.3-37.5l9.9-25.6c0-1 1-2 0-3-13.6-60.6-73.7-98.6-134.3-85-38.1 8.6-69 36.3-81.7 73.2a53.62 53.62 0 0 0-35.5-9.9c-23.9 2.7-42.7 21.5-45.4 45.4-.7 5.9-.3 11.9 1 17.8-39 1.1-70 33-70 72-.2 3.6.2 7.3 1 10.8.1 1.6 1.4 2.9 3 3h316.6c2 0 3.9-1 3.9-3l3-10.8z" style="fill:#4B4B4B"/><path d="M884.6 90.8h-4.9c-1 0-2 1-3 2l-6.9 23.7c-3.2 8.5-2.1 18.1 3 25.6 5.2 6.2 12.6 10.1 20.7 10.8l36.5 2c1 0 2 1 3 1 .8.6 1 1.8.4 2.6-.1.1-.2.3-.4.4-1 2-2 3-3.9 3l-37.5 2c-22.3 2.5-41.5 16.8-50.3 37.5l-2 8.9c-1 1 0 3 2 3h130.2c1.4.2 2.8-.8 3-2.2v-.7c2.3-8.4 3.7-17 3.9-25.6-.4-52-42.2-93.7-93.8-94" style="fill:#4B4B4B"/><path d="M991.1 268.3c-4.9 0-8.9-4-8.9-8.9s4-8.9 8.9-8.9 8.9 4 8.9 8.9-3.9 8.8-8.9 8.9c.1 0 0 0 0 0m0-15.8c-3.8 0-6.9 3.1-6.9 6.9 0 3.8 3.1 6.9 6.9 6.9 3.8 0 6.9-3.1 6.9-6.9.1-3.7-2.9-6.8-6.6-6.9h-.3m4 11.8h-2l-2-3h-2v3h-2v-8.9h4.9c1.4-.2 2.8.8 3 2.2v.7c0 1-1 2-2 3l2.1 3zm-3-4.9c1 0 1 0 1-1 0-.5-.4-1-.9-1h-3v3h3v-1zm-884.6-8.9h21.7v59.2h37.5v18.7h-59.2v-77.9zm81.8 38.5c0-22.4 18.1-40.5 40.5-40.5h1.9c21.9-1 40.4 15.9 41.4 37.8v2.6c0 22.4-18.1 40.5-40.5 40.5h-1.9c-22.2.7-40.7-16.8-41.4-39 .1-.5 0-.9 0-1.4m62.2 0c.8-11.2-7.6-20.9-18.8-21.7h-.9c-11.4.6-20.3 10.3-19.7 21.7.5 10.7 9 19.2 19.7 19.7 11.8 2 19.7-7.9 19.7-19.7m48.3 4.9v-43.4h21.7v43.4c0 10.8 5.9 16.8 14.8 16.8 7.6.6 14.3-5 14.9-12.6.1-1.1.1-2.1-.1-3.2v-44.4h21.7v43.4c0 25.6-14.8 36.5-36.5 36.5-22.7-1-36.5-11.8-36.5-36.5m105.5-43.4h30.6c27.6 0 44.4 15.8 44.4 38.5s-16.8 39.4-44.4 39.4h-29.6v-77.9h-1zm30.6 58.2c10.9 1 20.6-6.9 21.6-17.8s-6.9-20.6-17.8-21.6c-1.3-.1-2.5-.1-3.8 0H427v39.4h8.9zm74.9-58.2H573v18.7h-40.4V282H569v17.8h-36.5v28.6h-21.7v-77.9zm92.8 0h21.7v59.2h37.5v18.7h-59.2v-77.9zm115.3-1h21.7l33.5 78.9h-23.7l-5.9-13.8H714l-5.9 13.8h-22.7l33.5-78.9zm19.8 48.4-8.9-21.7-8.9 21.7h17.8zm63.1-47.4h36.5c9.4-.8 18.7 2.5 25.6 8.9 9.7 10.5 9.1 26.8-1.4 36.6-2.2 2-4.7 3.7-7.5 4.9l18.7 27.6H849l-15.8-23.7h-9.9v23.7h-21.7l.2-78zm35.5 37.5c6.9 0 11.8-3.9 11.8-8.9 0-5.9-4.9-8.9-11.8-8.9h-13.8V289h13.8v-1zm64.1-37.5h63.1v17.8h-41.4v11.8h37.5v17.8h-37.5v11.8h42.4v18.7h-64.1v-77.9zM60.2 298.8c-3 7.1-10 11.8-17.8 11.8-11.4-.5-20.3-10.2-19.7-21.6.5-10.7 9-19.2 19.7-19.7 8.2.2 15.6 5.2 18.7 12.8h22.7c-4-19.5-21.5-33.3-41.4-32.5-22.7-.7-41.7 17-42.4 39.7v.7c-.1 22.2 17.8 40.3 40 40.5h1.4c19.4.1 36.4-12.8 41.4-31.6H60.2z" style="fill:#4B4B4B"/></svg>

