<svg xmlns="http://www.w3.org/2000/svg" viewBox="0 0 2000 472.8" style="enable-background:new 0 0 2000 472.8" xml:space="preserve"><path d="M571.2 236.9v-.5c-1.1-51.3 39.6-93.8 90.9-94.9h3.7c26.9-1 52.9 9.4 71.7 28.6L716.8 194c-13.3-14.2-31.8-22.4-51.3-22.8-34.8 0-60.5 28.8-60.5 64.7v.5c0 36.1 25.4 64.9 60.5 64.9 20.1-.2 39.1-8.7 52.6-23.6l20.7 20.9c-18.7 21.4-46 33.4-74.4 32.5-51 .6-92.7-40.3-93.3-91.2 0-.9 0-2 .1-3zM794.5 236.9v-.5c1.5-52.9 45.6-94.6 98.5-93.2 50.7 1.4 91.5 42 93.2 92.6v.5c-1.5 52.9-45.6 94.6-98.5 93.1-50.7-1.3-91.5-41.9-93.2-92.5zm157.9 0v-.5c1.1-34.9-26.2-64.1-61.1-65.2h-1.2c-34.3.1-62 27.9-61.9 62.1 0 .9 0 1.7.1 2.6v.5C827 271 854 300 888.6 301.3h2c34.1.1 61.7-27.5 61.8-61.5v-2.9zM1060.5 144.7h81.7c19.3-1.1 38.3 5.4 52.9 18.1 10.1 10.7 15.6 25.1 15.2 39.8v.5c.8 26.6-17.5 50-43.5 55.5l49.6 69.4h-38.3l-45.1-63.9h-40V328h-32.1l-.4-183.3zm79.3 90.9c23.1 0 37.7-12.1 37.7-30.7v-.5c0-19.7-14.1-30.4-37.9-30.4h-46.7v61.6h46.9zM1272.8 301.3l19.4-23c15.5 15.1 36.2 23.7 57.9 24.1 20 0 32.5-9 32.5-23.1 0-13.1-7.3-20.2-41.3-28.1-39.1-9-61-20.9-61-54.7v-.5c0-31.4 26.2-53.2 62.6-53.2 24-.6 47.4 7.3 66.2 22.3l-17.3 24.4a83.11 83.11 0 0 0-49.7-18.9c-18.9 0-29.9 9.7-29.9 21.8v.5c0 14.2 8.4 20.4 43.8 28.8 38.7 9 58.7 23.3 58.7 53.7v.5c0 34.3-27.1 54.7-65.5 54.7-28.5.1-55.6-10.4-76.4-29.3zM1549 143.4h29.9l80.6 184.6h-33.9l-18.6-44.2h-86.7l-18.9 44.2h-32.9l80.5-184.6zm46.1 111.8-31.7-73.3-31.4 73.3h63.1zM1728.1 144.7h32.1V328h-32.1V144.7zM1844.5 144.7h81.7c19.3-1.1 38.3 5.4 52.9 18.1 10.1 10.7 15.5 24.9 15.2 39.5v.8c.8 26.7-17.6 50.1-43.8 55.5L2000 328h-38.3l-45.1-63.9h-40.4V328H1844l.5-183.3zm79.4 90.9c23 0 37.7-12.1 37.7-30.7v-.5c0-19.7-14.2-30.4-38-30.4h-46.9v61.6h47.2zM266.7 0s39 79.2 31.9 112.2c0 0 101.7 32.9 113 87.1 0 0 55.7-73.3-144.9-199.3zM227.5 118.8c8.9 21.4 15.6 43.6 20.2 66.3l-57.5-21.8c5.3-35.2-28.9-88.7-28.9-88.7l66.2 44.2zM124.6 173.3c7.2 18.5 13.1 37.5 17.6 56.9l-52.4-13C95.2 182 62 139.4 62 139.4l62.6 33.9z"/><path d="M238.5 88.6S471.8 252.4 487.1 316c11.6 47.8-22.1 92-22.1 92S446.9 283.3 0 472.8C46.2 423 69.1 356 63.2 288.3c-2.5-27.8-10-54.9-21.9-80.2L146 263.7c0 1.6 0 3.2.5 5 3.9 40.9.9 82.2-9 122.1 22.2-46.6 31.5-98.4 26.6-149.9-2.7-31.4-10.5-62.2-23.1-91.1l111.9 74.7c.5 3.7.7 7.4 1.1 11.2 4.4 45.1.3 90.7-12.1 134.3 47.7-88 46.4-194.5-3.4-281.4z"/></svg>