<?xml version="1.0" encoding="utf-8"?>
<!-- Generator: Adobe Illustrator 23.0.0, SVG Export Plug-In . SVG Version: 6.00 Build 0)  -->
<svg version="1.1" id="Camada_1" xmlns="http://www.w3.org/2000/svg" xmlns:xlink="http://www.w3.org/1999/xlink" x="0px" y="0px"
	 viewBox="0 0 2000 404.9" style="enable-background:new 0 0 2000 404.9;" xml:space="preserve">
<style type="text/css">
	.st0{fill:#4B4B4B;}
</style>
<g>
	<path class="st0" d="M202,0H84.4v9.8h37.7v194.5c0,58-16.6,74.6-52.8,74.6c-13.6,1.5-25.6-8.3-27.1-21.9v-4.5
		c0-21.1-1.5-33.9-20.4-33.9S0,238.2,0,244.3c0,27.1,12.1,47.5,65.6,47.5c64.1,0,98-21.1,98-92.7V9.8h39.2C202.8,9.8,202,0,202,0z
		 M217.1,245.8c-6,0-12.1,2.3-16.6,6.8c-4.5,4.5-6.8,10.6-6.8,16.6c0,6,2.3,12.1,6.8,15.8c4.5,4.5,10.6,6.8,16.6,6.8
		s12.1-2.3,16.6-6.8s6.8-9.8,6.8-15.8c0-12.8-9.8-22.6-22.6-22.6h-0.8 M478.7,245.8c-12.1,0-22.6,9.8-23.4,21.9v0.8
		c0,6,3,12.1,7.5,15.8c4.5,4.5,10.6,6.8,16.6,6.8c6,0,12.1-2.3,16.6-6.8c4.5-3.8,6.8-9.8,6.8-15.8c0-6-2.3-12.1-6.8-16.6
		c-4.5-4.5-9.8-6.8-15.8-6.8 M397.3,0H281.2v9.8h33.9v221.6c0.8,9,0,18.1-3,27.1c-3,6-8.3,11.3-14.3,12.8
		c-6.8,2.3-14.3,3.8-21.9,3.8v9h122.9v-9c-8.3,0-15.8-0.8-23.4-3c-6.8-2.3-12.1-6.8-14.3-12.8c-2.3-6-3.8-12.1-3-18.1v-76.9H389
		c89,0,113.8-35.4,113.8-82.9S487,0,397.3,0 M380.7,153h-23.4V11.3h21.1c68.6,0,85.2,27.9,85.2,73.1s-27.1,70.1-81.4,70.1
		 M870,257.8c-2.3-6-3-12.8-2.3-19.6V9.8h30.9v-9h-73.1l-89,216.4c0,0.8-0.8,1.5-1.5,1.5c-0.8,0-1.5-0.8-2.3-1.5
		c0,0-92-214.1-92.7-216.4h-81.4v9H594v240.5c0,5.3-2.3,9.8-4.5,14.3c-3,4.5-7.5,7.5-12.8,9c-5.3,1.5-11.3,1.5-16.6,1.5v9h80.7v-9
		c-5.3,0-9.8-0.8-14.3-2.3c-6-1.5-10.6-4.5-14.3-9c-3-4.5-4.5-9-5.3-14.3l-0.8-20.4v-190h4.5c0,0,104.8,242,104.8,245h9.8L824,41.5
		h2.3v195.3c0,6.8-0.8,13.6-2.3,20.4c-2.3,6-6.8,10.6-12.1,12.8c-6.8,2.3-13.6,3.8-20.4,3.8v9h112.3v-9c-6.8,0-14.3-1.5-21.1-3.8
		c-6-3-10.6-8.3-12.8-14.3 M1021.5,76.1c-60.3,0-98,39.2-98,108.6c0,101.8,79.2,107.8,96.5,107.8c33.9,0,98-21.1,98-110.1
		C1117.2,113.1,1076.5,76.1,1021.5,76.1 M1020.7,279.7c-45.2,0-52-22.6-52-94.2c0-55.8,3.8-98,52-98c52,0,52.8,43.7,52.8,93.5
		C1073.5,254.1,1060.7,279.7,1020.7,279.7 M1274.8,79.2c-36.2,0-46.7,21.1-57.3,43h-3c0,0-5.3-30.9-6.8-40.7h-70.1V92h37.7v141
		c0.8,9.8-0.8,19.6-4.5,28.6c-3.8,6.8-12.8,10.6-26.4,10.6h-6V285h116.1v-12.8h-5.3c-15.1,0-21.9-3-25.6-9.8c-3.8-9-6-19.6-4.5-29.4
		v-73.1c0-24.1,18.8-52.8,40.7-52.8c22.6,0,22.6,35.4,49,21.1C1322.3,119.9,1319.3,79.2,1274.8,79.2 M1738.4,263.1
		c-12.8,0-16.6-6.8-17.3-18.1V133.4c1.5-15.1-3.8-30.9-14.3-42.2c-10.6-10.6-31.7-16.6-61.8-16.6c-22.6-1.5-44.5,3.8-64.1,15.8
		c-11.3,6.8-18.1,19.6-18.1,32.4c-0.8,5.3,1.5,10.6,5.3,14.3c3.8,3,8.3,4.5,12.8,4.5c11.3,0,18.1-6,20.4-21.1c0-9,3.8-17.3,9-24.1
		c7.5-6.8,18.1-10.6,27.9-9c11.3-1.5,23.4,3,30.9,12.1c6,9,8.3,18.8,8.3,29.4v35.4c-36.9,3-125.1,10.6-121.4,76.9
		c3,27.9,27.1,49,55,48.2c26.4-0.8,51.3-12.8,67.8-33.9c3.8,18.8,20.4,31.7,39.2,30.9c27.1,0,43.7-13.6,45.2-46h-6.8
		C1755,255.6,1745.9,263.1,1738.4,263.1 M1677.3,241.2v2.3c-12.1,13.6-28.6,21.9-46.7,24.1c-17.3,0.8-32.4-12.8-33.2-30.9v-4.5
		c0-37.7,52-56.5,80.7-56.5L1677.3,241.2z M1976.6,261.6c-5.3-9-7.5-19.6-7.5-30.2v-92c0.8-12.1-1.5-23.4-6.8-33.9
		c-4.5-8.3-12.1-15.8-20.4-20.4c-9.8-4.5-20.4-6.8-30.9-6.8c-27.9-0.8-53.5,14.3-66.3,39.2h-4.5l-7.5-36.9h-62.6v10.6h31.7v140.2
		c0,8.3-0.8,15.8-2.3,24.1c-1.5,6-6,11.3-12.1,12.8c-5.3,2.3-11.3,3-17.3,3v12.8h100.3v-12.8c-7.5,0.8-15.1-3-20.4-8.3
		c-4.5-9-6.8-18.8-5.3-28.6v-53.5c-2.3-19.6,0.8-39.2,7.5-58c8.3-14.3,24.1-23.4,40.7-22.6c11.3-1.5,22.6,4.5,27.9,14.3
		c5.3,15.1,7.5,31.7,6.8,47.5v66.3c0.8,8.3,0.8,16.6,0,24.9c-0.8,6-3.8,11.3-9,14.3c-5.3,3-10.6,4.5-15.8,4.5V285h97.2v-12.8
		C1987.9,270.6,1980.4,267.6,1976.6,261.6 M1522.1,67.8c-6.8,3-11.3,9-12.1,15.8c-1.5,8.3-4.5,12.8-9,14.3
		c-4.5,1.5-9.8,0.8-14.3-0.8c-18.1-15.8-42.2-23.4-65.6-21.9c-41.5-3-78.4,27.9-81.4,69.4v9c0,43.7,16.6,63.3,52.8,71.6
		c2.3,0,2.3,3,0,3c-30.9,5.3-58,14.3-58,44.5c0,14.3,9,27.1,22.6,31.7c19.6,6.8,40,9.8,60.3,9c15.8,0,32.4,0.8,48.2,2.3
		c9,0.8,18.1,3.8,26.4,9c6.8,6,10.6,14.3,9.8,23.4c0,14.3-9,27.1-21.9,32.4c-17.3,8.3-36.2,12.1-55,11.3
		c-17.3,1.5-35.4-2.3-50.5-11.3c-9-6.8-13.6-18.1-10.6-28.6c3-8.3-1.5-18.1-10.6-21.1h-2.3c-6.8-0.8-13.6,2.3-17.3,7.5
		c-3,5.3-5.3,12.1-4.5,18.8c0.8,19.6,14.3,35.4,33.9,39.2c18.1,6,36.9,8.3,55.8,8.3c21.9,0.8,43.7-3,64.1-12.1
		c24.1-10.6,40.7-33.9,40.7-60.3c0.8-12.8-3-24.9-9.8-35.4c-20.4-27.9-49-24.1-113.8-27.1c-30.9,0-36.9-5.3-36.9-14.3
		c0-14.3,11.3-19.6,55.8-26.4c44.5-6.8,85.9-23.4,85.9-76.9c0-12.8-2.3-26.4-8.3-38.4c8.3,2.3,17.3,2.3,25.6,0
		c7.5-2.3,14.3-7.5,18.1-14.3c3.8-5.3,5.3-12.8,3.8-18.8C1540.1,69.4,1532.6,64.8,1522.1,67.8 M1421.8,216.4
		c-26.4,0-42.2-9.8-42.2-63.3c0-37.7,12.8-65.6,42.2-65.6c33.2,0,42.2,25.6,42.2,64.8C1463.2,208.1,1445.9,216.4,1421.8,216.4"/>
</g>
</svg>
